<?xml version="1.0" encoding="UTF-8" standalone="no"?>
<!DOCTYPE svg PUBLIC "-//W3C//DTD SVG 1.1//EN"
 "http://www.w3.org/Graphics/SVG/1.1/DTD/svg11.dtd">
<!-- Generated by graphviz version 2.47.0 (20210316.0004)
 -->
<!-- Title: dependencies Pages: 1 -->
<svg width="3788pt" height="284pt"
 viewBox="0.00 0.00 3788.00 284.00" xmlns="http://www.w3.org/2000/svg" xmlns:xlink="http://www.w3.org/1999/xlink">
<g id="graph0" class="graph" transform="scale(1 1) rotate(0) translate(4 280)">
<title>dependencies</title>
<polygon fill="white" stroke="transparent" points="-4,4 -4,-280 3784,-280 3784,4 -4,4"/>
<text text-anchor="start" x="1869.01" y="-42.4" font-family="sans-serif" font-weight="bold" font-size="14.00">Legend</text>
<polygon fill="#ffffb3" stroke="transparent" points="1656,-10 1656,-30 1676,-30 1676,-10 1656,-10"/>
<text text-anchor="start" x="1679.63" y="-15.4" font-family="sans-serif" font-size="14.00"> &#160;Declarations</text>
<polygon fill="#8dd3c7" stroke="transparent" points="1769,-10 1769,-30 1789,-30 1789,-10 1769,-10"/>
<text text-anchor="start" x="1792.73" y="-15.4" font-family="sans-serif" font-size="14.00"> &#160;Module</text>
<polygon fill="#80b1d3" stroke="transparent" points="1855,-10 1855,-30 1875,-30 1875,-10 1855,-10"/>
<text text-anchor="start" x="1878.78" y="-15.4" font-family="sans-serif" font-size="14.00"> &#160;Bootstrap</text>
<polygon fill="#fdb462" stroke="transparent" points="1952,-10 1952,-30 1972,-30 1972,-10 1952,-10"/>
<text text-anchor="start" x="1975.67" y="-15.4" font-family="sans-serif" font-size="14.00"> &#160;Providers</text>
<polygon fill="#fb8072" stroke="transparent" points="2048,-10 2048,-30 2068,-30 2068,-10 2048,-10"/>
<text text-anchor="start" x="2071.73" y="-15.4" font-family="sans-serif" font-size="14.00"> &#160;Exports</text>
<g id="clust1" class="cluster">
<title>cluster_AppModule</title>
<polygon fill="none" stroke="black" stroke-dasharray="1,5" points="8,-70 8,-268 3772,-268 3772,-70 8,-70"/>
</g>
<g id="clust21" class="cluster">
<title>cluster_AppModule_imports</title>
<polygon fill="none" stroke="black" points="3620,-78 3620,-130 3764,-130 3764,-78 3620,-78"/>
</g>
<g id="clust23" class="cluster">
<title>cluster_AppModule_bootstrap</title>
<polygon fill="none" stroke="black" points="1878,-208 1878,-260 2002,-260 2002,-208 1878,-208"/>
</g>
<g id="clust24" class="cluster">
<title>cluster_AppModule_providers</title>
<polygon fill="none" stroke="black" points="3396,-78 3396,-130 3612,-130 3612,-78 3396,-78"/>
</g>
<g id="clust2" class="cluster">
<title>cluster_AppModule_declarations</title>
<polygon fill="none" stroke="black" points="16,-78 16,-130 3388,-130 3388,-78 16,-78"/>
</g>
<!-- AppComponent -->
<g id="node1" class="node">
<title>AppComponent</title>
<polygon fill="#ffffb3" stroke="black" points="3379.94,-122 3274.06,-122 3274.06,-86 3379.94,-86 3379.94,-122"/>
<text text-anchor="middle" x="3327" y="-99.8" font-family="Times,serif" font-size="14.00">AppComponent</text>
</g>
<!-- AppModule -->
<g id="node19" class="node">
<title>AppModule</title>
<polygon fill="#8dd3c7" stroke="black" points="1981.66,-187 1978.66,-191 1957.66,-191 1954.66,-187 1898.34,-187 1898.34,-151 1981.66,-151 1981.66,-187"/>
<text text-anchor="middle" x="1940" y="-164.8" font-family="Times,serif" font-size="14.00">AppModule</text>
</g>
<!-- AppComponent&#45;&gt;AppModule -->
<g id="edge1" class="edge">
<title>AppComponent&#45;&gt;AppModule</title>
<path fill="none" stroke="black" d="M3327,-122.04C3327,-143.66 3327,-177 3327,-177 3327,-177 1991.89,-177 1991.89,-177"/>
<polygon fill="black" stroke="black" points="1991.89,-173.5 1981.89,-177 1991.89,-180.5 1991.89,-173.5"/>
</g>
<!-- DialogBorrarImgComponent -->
<g id="node2" class="node">
<title>DialogBorrarImgComponent</title>
<polygon fill="#ffffb3" stroke="black" points="3256.02,-122 3077.98,-122 3077.98,-86 3256.02,-86 3256.02,-122"/>
<text text-anchor="middle" x="3167" y="-99.8" font-family="Times,serif" font-size="14.00">DialogBorrarImgComponent</text>
</g>
<!-- DialogBorrarImgComponent&#45;&gt;AppModule -->
<g id="edge2" class="edge">
<title>DialogBorrarImgComponent&#45;&gt;AppModule</title>
<path fill="none" stroke="black" d="M3167,-122.13C3167,-142.57 3167,-173 3167,-173 3167,-173 1991.88,-173 1991.88,-173"/>
<polygon fill="black" stroke="black" points="1991.88,-169.5 1981.88,-173 1991.88,-176.5 1991.88,-169.5"/>
</g>
<!-- DivPeluExpansionComponent -->
<g id="node3" class="node">
<title>DivPeluExpansionComponent</title>
<polygon fill="#ffffb3" stroke="black" points="3060.32,-122 2873.68,-122 2873.68,-86 3060.32,-86 3060.32,-122"/>
<text text-anchor="middle" x="2967" y="-99.8" font-family="Times,serif" font-size="14.00">DivPeluExpansionComponent</text>
</g>
<!-- DivPeluExpansionComponent&#45;&gt;AppModule -->
<g id="edge3" class="edge">
<title>DivPeluExpansionComponent&#45;&gt;AppModule</title>
<path fill="none" stroke="black" d="M2967,-122.11C2967,-141.34 2967,-169 2967,-169 2967,-169 1991.85,-169 1991.85,-169"/>
<polygon fill="black" stroke="black" points="1991.85,-165.5 1981.85,-169 1991.85,-172.5 1991.85,-165.5"/>
</g>
<!-- InicioPeluqueriaComponent -->
<g id="node4" class="node">
<title>InicioPeluqueriaComponent</title>
<polygon fill="#ffffb3" stroke="black" points="2855.86,-122 2682.14,-122 2682.14,-86 2855.86,-86 2855.86,-122"/>
<text text-anchor="middle" x="2769" y="-99.8" font-family="Times,serif" font-size="14.00">InicioPeluqueriaComponent</text>
</g>
<!-- InicioPeluqueriaComponent&#45;&gt;AppModule -->
<g id="edge4" class="edge">
<title>InicioPeluqueriaComponent&#45;&gt;AppModule</title>
<path fill="none" stroke="black" d="M2769,-122.27C2769,-140.56 2769,-166 2769,-166 2769,-166 1991.68,-166 1991.68,-166"/>
<polygon fill="black" stroke="black" points="1991.68,-162.5 1981.68,-166 1991.68,-169.5 1991.68,-162.5"/>
</g>
<!-- NavPeluqueriaComponent -->
<g id="node5" class="node">
<title>NavPeluqueriaComponent</title>
<polygon fill="#ffffb3" stroke="black" points="2664.02,-122 2499.98,-122 2499.98,-86 2664.02,-86 2664.02,-122"/>
<text text-anchor="middle" x="2582" y="-99.8" font-family="Times,serif" font-size="14.00">NavPeluqueriaComponent</text>
</g>
<!-- NavPeluqueriaComponent&#45;&gt;AppModule -->
<g id="edge5" class="edge">
<title>NavPeluqueriaComponent&#45;&gt;AppModule</title>
<path fill="none" stroke="black" d="M2582,-122.03C2582,-139.06 2582,-162 2582,-162 2582,-162 1992.12,-162 1992.12,-162"/>
<polygon fill="black" stroke="black" points="1992.12,-158.5 1982.12,-162 1992.12,-165.5 1992.12,-158.5"/>
</g>
<!-- NavPeluqueroComponent -->
<g id="node6" class="node">
<title>NavPeluqueroComponent</title>
<polygon fill="#ffffb3" stroke="black" points="2481.92,-122 2320.08,-122 2320.08,-86 2481.92,-86 2481.92,-122"/>
<text text-anchor="middle" x="2401" y="-99.8" font-family="Times,serif" font-size="14.00">NavPeluqueroComponent</text>
</g>
<!-- NavPeluqueroComponent&#45;&gt;AppModule -->
<g id="edge6" class="edge">
<title>NavPeluqueroComponent&#45;&gt;AppModule</title>
<path fill="none" stroke="black" d="M2401,-122.01C2401,-138.05 2401,-159 2401,-159 2401,-159 1991.72,-159 1991.72,-159"/>
<polygon fill="black" stroke="black" points="1991.72,-155.5 1981.72,-159 1991.72,-162.5 1991.72,-155.5"/>
</g>
<!-- PeluqueriaInfoComponent -->
<g id="node7" class="node">
<title>PeluqueriaInfoComponent</title>
<polygon fill="#ffffb3" stroke="black" points="2302.02,-122 2137.98,-122 2137.98,-86 2302.02,-86 2302.02,-122"/>
<text text-anchor="middle" x="2220" y="-99.8" font-family="Times,serif" font-size="14.00">PeluqueriaInfoComponent</text>
</g>
<!-- PeluqueriaInfoComponent&#45;&gt;AppModule -->
<g id="edge7" class="edge">
<title>PeluqueriaInfoComponent&#45;&gt;AppModule</title>
<path fill="none" stroke="black" d="M2220,-122.12C2220,-136.78 2220,-155 2220,-155 2220,-155 1991.92,-155 1991.92,-155"/>
<polygon fill="black" stroke="black" points="1991.92,-151.5 1981.92,-155 1991.92,-158.5 1991.92,-151.5"/>
</g>
<!-- PeluqueriaPelusComponent -->
<g id="node8" class="node">
<title>PeluqueriaPelusComponent</title>
<polygon fill="#ffffb3" stroke="black" points="2119.53,-122 1948.47,-122 1948.47,-86 2119.53,-86 2119.53,-122"/>
<text text-anchor="middle" x="2034" y="-99.8" font-family="Times,serif" font-size="14.00">PeluqueriaPelusComponent</text>
</g>
<!-- PeluqueriaPelusComponent&#45;&gt;AppModule -->
<g id="edge8" class="edge">
<title>PeluqueriaPelusComponent&#45;&gt;AppModule</title>
<path fill="none" stroke="black" d="M1965.03,-122.11C1965.03,-122.11 1965.03,-140.99 1965.03,-140.99"/>
<polygon fill="black" stroke="black" points="1961.53,-140.99 1965.03,-150.99 1968.53,-140.99 1961.53,-140.99"/>
</g>
<!-- PeluqueroCitasComponent -->
<g id="node9" class="node">
<title>PeluqueroCitasComponent</title>
<polygon fill="#ffffb3" stroke="black" points="1930.37,-122 1763.63,-122 1763.63,-86 1930.37,-86 1930.37,-122"/>
<text text-anchor="middle" x="1847" y="-99.8" font-family="Times,serif" font-size="14.00">PeluqueroCitasComponent</text>
</g>
<!-- PeluqueroCitasComponent&#45;&gt;AppModule -->
<g id="edge9" class="edge">
<title>PeluqueroCitasComponent&#45;&gt;AppModule</title>
<path fill="none" stroke="black" d="M1914.3,-122.11C1914.3,-122.11 1914.3,-140.99 1914.3,-140.99"/>
<polygon fill="black" stroke="black" points="1910.8,-140.99 1914.3,-150.99 1917.8,-140.99 1910.8,-140.99"/>
</g>
<!-- PeluqueroFotosComponent -->
<g id="node10" class="node">
<title>PeluqueroFotosComponent</title>
<polygon fill="#ffffb3" stroke="black" points="1745.71,-122 1576.29,-122 1576.29,-86 1745.71,-86 1745.71,-122"/>
<text text-anchor="middle" x="1661" y="-99.8" font-family="Times,serif" font-size="14.00">PeluqueroFotosComponent</text>
</g>
<!-- PeluqueroFotosComponent&#45;&gt;AppModule -->
<g id="edge10" class="edge">
<title>PeluqueroFotosComponent&#45;&gt;AppModule</title>
<path fill="none" stroke="black" d="M1661,-122.12C1661,-136.78 1661,-155 1661,-155 1661,-155 1888.23,-155 1888.23,-155"/>
<polygon fill="black" stroke="black" points="1888.23,-158.5 1898.23,-155 1888.23,-151.5 1888.23,-158.5"/>
</g>
<!-- PeluqueroInfoComponent -->
<g id="node11" class="node">
<title>PeluqueroInfoComponent</title>
<polygon fill="#ffffb3" stroke="black" points="1558.92,-122 1397.08,-122 1397.08,-86 1558.92,-86 1558.92,-122"/>
<text text-anchor="middle" x="1478" y="-99.8" font-family="Times,serif" font-size="14.00">PeluqueroInfoComponent</text>
</g>
<!-- PeluqueroInfoComponent&#45;&gt;AppModule -->
<g id="edge11" class="edge">
<title>PeluqueroInfoComponent&#45;&gt;AppModule</title>
<path fill="none" stroke="black" d="M1478,-122.01C1478,-138.05 1478,-159 1478,-159 1478,-159 1888.19,-159 1888.19,-159"/>
<polygon fill="black" stroke="black" points="1888.19,-162.5 1898.19,-159 1888.19,-155.5 1888.19,-162.5"/>
</g>
<!-- PeluqueroResenasComponent -->
<g id="node12" class="node">
<title>PeluqueroResenasComponent</title>
<polygon fill="#ffffb3" stroke="black" points="1378.97,-122 1195.03,-122 1195.03,-86 1378.97,-86 1378.97,-122"/>
<text text-anchor="middle" x="1287" y="-99.8" font-family="Times,serif" font-size="14.00">PeluqueroResenasComponent</text>
</g>
<!-- PeluqueroResenasComponent&#45;&gt;AppModule -->
<g id="edge12" class="edge">
<title>PeluqueroResenasComponent&#45;&gt;AppModule</title>
<path fill="none" stroke="black" d="M1287,-122.03C1287,-139.06 1287,-162 1287,-162 1287,-162 1888.16,-162 1888.16,-162"/>
<polygon fill="black" stroke="black" points="1888.16,-165.5 1898.16,-162 1888.16,-158.5 1888.16,-165.5"/>
</g>
<!-- PrincipalPeluqueriaComponent -->
<g id="node13" class="node">
<title>PrincipalPeluqueriaComponent</title>
<polygon fill="#ffffb3" stroke="black" points="1176.74,-122 985.26,-122 985.26,-86 1176.74,-86 1176.74,-122"/>
<text text-anchor="middle" x="1081" y="-99.8" font-family="Times,serif" font-size="14.00">PrincipalPeluqueriaComponent</text>
</g>
<!-- PrincipalPeluqueriaComponent&#45;&gt;AppModule -->
<g id="edge13" class="edge">
<title>PrincipalPeluqueriaComponent&#45;&gt;AppModule</title>
<path fill="none" stroke="black" d="M1081,-122.27C1081,-140.56 1081,-166 1081,-166 1081,-166 1888.28,-166 1888.28,-166"/>
<polygon fill="black" stroke="black" points="1888.28,-169.5 1898.28,-166 1888.28,-162.5 1888.28,-169.5"/>
</g>
<!-- WinAuntenticaPeluComponent -->
<g id="node14" class="node">
<title>WinAuntenticaPeluComponent</title>
<polygon fill="#ffffb3" stroke="black" points="966.75,-122 775.25,-122 775.25,-86 966.75,-86 966.75,-122"/>
<text text-anchor="middle" x="871" y="-99.8" font-family="Times,serif" font-size="14.00">WinAuntenticaPeluComponent</text>
</g>
<!-- WinAuntenticaPeluComponent&#45;&gt;AppModule -->
<g id="edge14" class="edge">
<title>WinAuntenticaPeluComponent&#45;&gt;AppModule</title>
<path fill="none" stroke="black" d="M871,-122.11C871,-141.34 871,-169 871,-169 871,-169 1888.09,-169 1888.09,-169"/>
<polygon fill="black" stroke="black" points="1888.09,-172.5 1898.09,-169 1888.09,-165.5 1888.09,-172.5"/>
</g>
<!-- WinOpcionInsertarComponent -->
<g id="node15" class="node">
<title>WinOpcionInsertarComponent</title>
<polygon fill="#ffffb3" stroke="black" points="756.9,-122 567.1,-122 567.1,-86 756.9,-86 756.9,-122"/>
<text text-anchor="middle" x="662" y="-99.8" font-family="Times,serif" font-size="14.00">WinOpcionInsertarComponent</text>
</g>
<!-- WinOpcionInsertarComponent&#45;&gt;AppModule -->
<g id="edge15" class="edge">
<title>WinOpcionInsertarComponent&#45;&gt;AppModule</title>
<path fill="none" stroke="black" d="M662,-122.13C662,-142.57 662,-173 662,-173 662,-173 1888.21,-173 1888.21,-173"/>
<polygon fill="black" stroke="black" points="1888.21,-176.5 1898.21,-173 1888.21,-169.5 1888.21,-176.5"/>
</g>
<!-- WinPeluqueriaComponent -->
<g id="node16" class="node">
<title>WinPeluqueriaComponent</title>
<polygon fill="#ffffb3" stroke="black" points="549.81,-122 384.19,-122 384.19,-86 549.81,-86 549.81,-122"/>
<text text-anchor="middle" x="467" y="-99.8" font-family="Times,serif" font-size="14.00">WinPeluqueriaComponent</text>
</g>
<!-- WinPeluqueriaComponent&#45;&gt;AppModule -->
<g id="edge16" class="edge">
<title>WinPeluqueriaComponent&#45;&gt;AppModule</title>
<path fill="none" stroke="black" d="M467,-122.04C467,-143.66 467,-177 467,-177 467,-177 1888.29,-177 1888.29,-177"/>
<polygon fill="black" stroke="black" points="1888.29,-180.5 1898.29,-177 1888.29,-173.5 1888.29,-180.5"/>
</g>
<!-- WinPeluqueroComponent -->
<g id="node17" class="node">
<title>WinPeluqueroComponent</title>
<polygon fill="#ffffb3" stroke="black" points="366.2,-122 203.8,-122 203.8,-86 366.2,-86 366.2,-122"/>
<text text-anchor="middle" x="285" y="-99.8" font-family="Times,serif" font-size="14.00">WinPeluqueroComponent</text>
</g>
<!-- WinPeluqueroComponent&#45;&gt;AppModule -->
<g id="edge17" class="edge">
<title>WinPeluqueroComponent&#45;&gt;AppModule</title>
<path fill="none" stroke="black" d="M285,-122.01C285,-144.49 285,-180 285,-180 285,-180 1888.26,-180 1888.26,-180"/>
<polygon fill="black" stroke="black" points="1888.26,-183.5 1898.26,-180 1888.26,-176.5 1888.26,-183.5"/>
</g>
<!-- WinSubirFotoComponent -->
<g id="node18" class="node">
<title>WinSubirFotoComponent</title>
<polygon fill="#ffffb3" stroke="black" points="185.95,-122 24.05,-122 24.05,-86 185.95,-86 185.95,-122"/>
<text text-anchor="middle" x="105" y="-99.8" font-family="Times,serif" font-size="14.00">WinSubirFotoComponent</text>
</g>
<!-- WinSubirFotoComponent&#45;&gt;AppModule -->
<g id="edge18" class="edge">
<title>WinSubirFotoComponent&#45;&gt;AppModule</title>
<path fill="none" stroke="black" d="M105,-122.15C105,-145.76 105,-184 105,-184 105,-184 1888.23,-184 1888.23,-184"/>
<polygon fill="black" stroke="black" points="1888.23,-187.5 1898.23,-184 1888.23,-180.5 1888.23,-187.5"/>
</g>
<!-- AppComponent  -->
<g id="node21" class="node">
<title>AppComponent </title>
<polygon fill="#80b1d3" stroke="black" points="1994.44,-252 1885.56,-252 1885.56,-216 1994.44,-216 1994.44,-252"/>
<text text-anchor="middle" x="1940" y="-229.8" font-family="Times,serif" font-size="14.00">AppComponent </text>
</g>
<!-- AppModule&#45;&gt;AppComponent  -->
<g id="edge20" class="edge">
<title>AppModule&#45;&gt;AppComponent </title>
<path fill="none" stroke="black" stroke-dasharray="1,5" d="M1940,-187.11C1940,-187.11 1940,-205.99 1940,-205.99"/>
<polygon fill="black" stroke="black" points="1936.5,-205.99 1940,-215.99 1943.5,-205.99 1936.5,-205.99"/>
</g>
<!-- AppRoutingModule -->
<g id="node20" class="node">
<title>AppRoutingModule</title>
<polygon fill="#8dd3c7" stroke="black" points="3756.27,-122 3753.27,-126 3732.27,-126 3729.27,-122 3627.73,-122 3627.73,-86 3756.27,-86 3756.27,-122"/>
<text text-anchor="middle" x="3692" y="-99.8" font-family="Times,serif" font-size="14.00">AppRoutingModule</text>
</g>
<!-- AppRoutingModule&#45;&gt;AppModule -->
<g id="edge19" class="edge">
<title>AppRoutingModule&#45;&gt;AppModule</title>
<path fill="none" stroke="black" d="M3692,-122.15C3692,-145.76 3692,-184 3692,-184 3692,-184 1992.01,-184 1992.01,-184"/>
<polygon fill="black" stroke="black" points="1992.01,-180.5 1982.01,-184 1992.01,-187.5 1992.01,-180.5"/>
</g>
<!-- HttpInterceptorService -->
<g id="node22" class="node">
<title>HttpInterceptorService</title>
<ellipse fill="#fdb462" stroke="black" cx="3504" cy="-104" rx="99.53" ry="18"/>
<text text-anchor="middle" x="3504" y="-99.8" font-family="Times,serif" font-size="14.00">HttpInterceptorService</text>
</g>
<!-- HttpInterceptorService&#45;&gt;AppModule -->
<g id="edge21" class="edge">
<title>HttpInterceptorService&#45;&gt;AppModule</title>
<path fill="none" stroke="black" d="M3504,-122.01C3504,-144.49 3504,-180 3504,-180 3504,-180 1991.83,-180 1991.83,-180"/>
<polygon fill="black" stroke="black" points="1991.83,-176.5 1981.83,-180 1991.83,-183.5 1991.83,-176.5"/>
</g>
</g>
</svg>
