<?xml version="1.0" encoding="UTF-8" standalone="no"?>
<!DOCTYPE svg PUBLIC "-//W3C//DTD SVG 1.1//EN"
 "http://www.w3.org/Graphics/SVG/1.1/DTD/svg11.dtd">
<!-- Generated by graphviz version 2.47.0 (20210316.0004)
 -->
<!-- Title: dependencies Pages: 1 -->
<svg width="3788pt" height="284pt"
 viewBox="0.00 0.00 3788.00 284.00" xmlns="http://www.w3.org/2000/svg" xmlns:xlink="http://www.w3.org/1999/xlink">
<g id="graph0" class="graph" transform="scale(1 1) rotate(0) translate(4 280)">
<title>dependencies</title>
<polygon fill="white" stroke="transparent" points="-4,4 -4,-280 3784,-280 3784,4 -4,4"/>
<text text-anchor="start" x="1869.01" y="-42.4" font-family="sans-serif" font-weight="bold" font-size="14.00">Legend</text>
<polygon fill="#ffffb3" stroke="transparent" points="1656,-10 1656,-30 1676,-30 1676,-10 1656,-10"/>
<text text-anchor="start" x="1679.63" y="-15.4" font-family="sans-serif" font-size="14.00"> &#160;Declarations</text>
<polygon fill="#8dd3c7" stroke="transparent" points="1769,-10 1769,-30 1789,-30 1789,-10 1769,-10"/>
<text text-anchor="start" x="1792.73" y="-15.4" font-family="sans-serif" font-size="14.00"> &#160;Module</text>
<polygon fill="#80b1d3" stroke="transparent" points="1855,-10 1855,-30 1875,-30 1875,-10 1855,-10"/>
<text text-anchor="start" x="1878.78" y="-15.4" font-family="sans-serif" font-size="14.00"> &#160;Bootstrap</text>
<polygon fill="#fdb462" stroke="transparent" points="1952,-10 1952,-30 1972,-30 1972,-10 1952,-10"/>
<text text-anchor="start" x="1975.67" y="-15.4" font-family="sans-serif" font-size="14.00"> &#160;Providers</text>
<polygon fill="#fb8072" stroke="transparent" points="2048,-10 2048,-30 2068,-30 2068,-10 2048,-10"/>
<text text-anchor="start" x="2071.73" y="-15.4" font-family="sans-serif" font-size="14.00"> &#160;Exports</text>
<g id="clust1" class="cluster">
<title>cluster_AppModule</title>
<polygon fill="none" stroke="black" stroke-dasharray="1,5" points="8,-70 8,-268 3772,-268 3772,-70 8,-70"/>
</g>
<g id="clust2" class="cluster">
<title>cluster_AppModule_declarations</title>
<polygon fill="none" stroke="black" points="392,-78 392,-130 3764,-130 3764,-78 392,-78"/>
</g>
<g id="clust21" class="cluster">
<title>cluster_AppModule_imports</title>
<polygon fill="none" stroke="black" points="240,-78 240,-130 384,-130 384,-78 240,-78"/>
</g>
<g id="clust23" class="cluster">
<title>cluster_AppModule_bootstrap</title>
<polygon fill="none" stroke="black" points="1883,-208 1883,-260 2007,-260 2007,-208 1883,-208"/>
</g>
<g id="clust24" class="cluster">
<title>cluster_AppModule_providers</title>
<polygon fill="none" stroke="black" points="16,-78 16,-130 232,-130 232,-78 16,-78"/>
</g>
<!-- AppComponent -->
<g id="node1" class="node">
<title>AppComponent</title>
<polygon fill="#ffffb3" stroke="black" points="3755.94,-122 3650.06,-122 3650.06,-86 3755.94,-86 3755.94,-122"/>
<text text-anchor="middle" x="3703" y="-99.8" font-family="Times,serif" font-size="14.00">AppComponent</text>
</g>
<!-- AppModule -->
<g id="node19" class="node">
<title>AppModule</title>
<polygon fill="#8dd3c7" stroke="black" points="1986.66,-187 1983.66,-191 1962.66,-191 1959.66,-187 1903.34,-187 1903.34,-151 1986.66,-151 1986.66,-187"/>
<text text-anchor="middle" x="1945" y="-164.8" font-family="Times,serif" font-size="14.00">AppModule</text>
</g>
<!-- AppComponent&#45;&gt;AppModule -->
<g id="edge1" class="edge">
<title>AppComponent&#45;&gt;AppModule</title>
<path fill="none" stroke="black" d="M3703,-122.15C3703,-145.76 3703,-184 3703,-184 3703,-184 1996.72,-184 1996.72,-184"/>
<polygon fill="black" stroke="black" points="1996.72,-180.5 1986.72,-184 1996.72,-187.5 1996.72,-180.5"/>
</g>
<!-- DialogBorrarImgComponent -->
<g id="node2" class="node">
<title>DialogBorrarImgComponent</title>
<polygon fill="#ffffb3" stroke="black" points="3632.02,-122 3453.98,-122 3453.98,-86 3632.02,-86 3632.02,-122"/>
<text text-anchor="middle" x="3543" y="-99.8" font-family="Times,serif" font-size="14.00">DialogBorrarImgComponent</text>
</g>
<!-- DialogBorrarImgComponent&#45;&gt;AppModule -->
<g id="edge2" class="edge">
<title>DialogBorrarImgComponent&#45;&gt;AppModule</title>
<path fill="none" stroke="black" d="M3543,-122.01C3543,-144.49 3543,-180 3543,-180 3543,-180 1996.92,-180 1996.92,-180"/>
<polygon fill="black" stroke="black" points="1996.92,-176.5 1986.92,-180 1996.92,-183.5 1996.92,-176.5"/>
</g>
<!-- DivPeluExpansionComponent -->
<g id="node3" class="node">
<title>DivPeluExpansionComponent</title>
<polygon fill="#ffffb3" stroke="black" points="3436.32,-122 3249.68,-122 3249.68,-86 3436.32,-86 3436.32,-122"/>
<text text-anchor="middle" x="3343" y="-99.8" font-family="Times,serif" font-size="14.00">DivPeluExpansionComponent</text>
</g>
<!-- DivPeluExpansionComponent&#45;&gt;AppModule -->
<g id="edge3" class="edge">
<title>DivPeluExpansionComponent&#45;&gt;AppModule</title>
<path fill="none" stroke="black" d="M3343,-122.04C3343,-143.66 3343,-177 3343,-177 3343,-177 1996.84,-177 1996.84,-177"/>
<polygon fill="black" stroke="black" points="1996.84,-173.5 1986.84,-177 1996.84,-180.5 1996.84,-173.5"/>
</g>
<!-- InicioPeluqueriaComponent -->
<g id="node4" class="node">
<title>InicioPeluqueriaComponent</title>
<polygon fill="#ffffb3" stroke="black" points="3231.86,-122 3058.14,-122 3058.14,-86 3231.86,-86 3231.86,-122"/>
<text text-anchor="middle" x="3145" y="-99.8" font-family="Times,serif" font-size="14.00">InicioPeluqueriaComponent</text>
</g>
<!-- InicioPeluqueriaComponent&#45;&gt;AppModule -->
<g id="edge4" class="edge">
<title>InicioPeluqueriaComponent&#45;&gt;AppModule</title>
<path fill="none" stroke="black" d="M3145,-122.13C3145,-142.57 3145,-173 3145,-173 3145,-173 1997.01,-173 1997.01,-173"/>
<polygon fill="black" stroke="black" points="1997.01,-169.5 1987.01,-173 1997,-176.5 1997.01,-169.5"/>
</g>
<!-- NavPeluqueriaComponent -->
<g id="node5" class="node">
<title>NavPeluqueriaComponent</title>
<polygon fill="#ffffb3" stroke="black" points="3040.02,-122 2875.98,-122 2875.98,-86 3040.02,-86 3040.02,-122"/>
<text text-anchor="middle" x="2958" y="-99.8" font-family="Times,serif" font-size="14.00">NavPeluqueriaComponent</text>
</g>
<!-- NavPeluqueriaComponent&#45;&gt;AppModule -->
<g id="edge5" class="edge">
<title>NavPeluqueriaComponent&#45;&gt;AppModule</title>
<path fill="none" stroke="black" d="M2958,-122.11C2958,-141.34 2958,-169 2958,-169 2958,-169 1996.92,-169 1996.92,-169"/>
<polygon fill="black" stroke="black" points="1996.92,-165.5 1986.92,-169 1996.92,-172.5 1996.92,-165.5"/>
</g>
<!-- NavPeluqueroComponent -->
<g id="node6" class="node">
<title>NavPeluqueroComponent</title>
<polygon fill="#ffffb3" stroke="black" points="2857.92,-122 2696.08,-122 2696.08,-86 2857.92,-86 2857.92,-122"/>
<text text-anchor="middle" x="2777" y="-99.8" font-family="Times,serif" font-size="14.00">NavPeluqueroComponent</text>
</g>
<!-- NavPeluqueroComponent&#45;&gt;AppModule -->
<g id="edge6" class="edge">
<title>NavPeluqueroComponent&#45;&gt;AppModule</title>
<path fill="none" stroke="black" d="M2777,-122.27C2777,-140.56 2777,-166 2777,-166 2777,-166 1996.83,-166 1996.83,-166"/>
<polygon fill="black" stroke="black" points="1996.83,-162.5 1986.83,-166 1996.83,-169.5 1996.83,-162.5"/>
</g>
<!-- PeluqueriaInfoComponent -->
<g id="node7" class="node">
<title>PeluqueriaInfoComponent</title>
<polygon fill="#ffffb3" stroke="black" points="2678.02,-122 2513.98,-122 2513.98,-86 2678.02,-86 2678.02,-122"/>
<text text-anchor="middle" x="2596" y="-99.8" font-family="Times,serif" font-size="14.00">PeluqueriaInfoComponent</text>
</g>
<!-- PeluqueriaInfoComponent&#45;&gt;AppModule -->
<g id="edge7" class="edge">
<title>PeluqueriaInfoComponent&#45;&gt;AppModule</title>
<path fill="none" stroke="black" d="M2596,-122.03C2596,-139.06 2596,-162 2596,-162 2596,-162 1996.71,-162 1996.71,-162"/>
<polygon fill="black" stroke="black" points="1996.71,-158.5 1986.71,-162 1996.71,-165.5 1996.71,-158.5"/>
</g>
<!-- PeluqueriaPelusComponent -->
<g id="node8" class="node">
<title>PeluqueriaPelusComponent</title>
<polygon fill="#ffffb3" stroke="black" points="2495.53,-122 2324.47,-122 2324.47,-86 2495.53,-86 2495.53,-122"/>
<text text-anchor="middle" x="2410" y="-99.8" font-family="Times,serif" font-size="14.00">PeluqueriaPelusComponent</text>
</g>
<!-- PeluqueriaPelusComponent&#45;&gt;AppModule -->
<g id="edge8" class="edge">
<title>PeluqueriaPelusComponent&#45;&gt;AppModule</title>
<path fill="none" stroke="black" d="M2410,-122.01C2410,-138.05 2410,-159 2410,-159 2410,-159 1996.67,-159 1996.67,-159"/>
<polygon fill="black" stroke="black" points="1996.67,-155.5 1986.67,-159 1996.67,-162.5 1996.67,-155.5"/>
</g>
<!-- PeluqueroCitasComponent -->
<g id="node9" class="node">
<title>PeluqueroCitasComponent</title>
<polygon fill="#ffffb3" stroke="black" points="2306.37,-122 2139.63,-122 2139.63,-86 2306.37,-86 2306.37,-122"/>
<text text-anchor="middle" x="2223" y="-99.8" font-family="Times,serif" font-size="14.00">PeluqueroCitasComponent</text>
</g>
<!-- PeluqueroCitasComponent&#45;&gt;AppModule -->
<g id="edge9" class="edge">
<title>PeluqueroCitasComponent&#45;&gt;AppModule</title>
<path fill="none" stroke="black" d="M2223,-122.12C2223,-136.78 2223,-155 2223,-155 2223,-155 1996.92,-155 1996.92,-155"/>
<polygon fill="black" stroke="black" points="1996.92,-151.5 1986.92,-155 1996.92,-158.5 1996.92,-151.5"/>
</g>
<!-- PeluqueroFotosComponent -->
<g id="node10" class="node">
<title>PeluqueroFotosComponent</title>
<polygon fill="#ffffb3" stroke="black" points="2121.71,-122 1952.29,-122 1952.29,-86 2121.71,-86 2121.71,-122"/>
<text text-anchor="middle" x="2037" y="-99.8" font-family="Times,serif" font-size="14.00">PeluqueroFotosComponent</text>
</g>
<!-- PeluqueroFotosComponent&#45;&gt;AppModule -->
<g id="edge10" class="edge">
<title>PeluqueroFotosComponent&#45;&gt;AppModule</title>
<path fill="none" stroke="black" d="M1969.61,-122.11C1969.61,-122.11 1969.61,-140.99 1969.61,-140.99"/>
<polygon fill="black" stroke="black" points="1966.11,-140.99 1969.61,-150.99 1973.11,-140.99 1966.11,-140.99"/>
</g>
<!-- PeluqueroInfoComponent -->
<g id="node11" class="node">
<title>PeluqueroInfoComponent</title>
<polygon fill="#ffffb3" stroke="black" points="1934.92,-122 1773.08,-122 1773.08,-86 1934.92,-86 1934.92,-122"/>
<text text-anchor="middle" x="1854" y="-99.8" font-family="Times,serif" font-size="14.00">PeluqueroInfoComponent</text>
</g>
<!-- PeluqueroInfoComponent&#45;&gt;AppModule -->
<g id="edge11" class="edge">
<title>PeluqueroInfoComponent&#45;&gt;AppModule</title>
<path fill="none" stroke="black" d="M1918.94,-122.11C1918.94,-122.11 1918.94,-140.99 1918.94,-140.99"/>
<polygon fill="black" stroke="black" points="1915.44,-140.99 1918.94,-150.99 1922.44,-140.99 1915.44,-140.99"/>
</g>
<!-- PeluqueroResenasComponent -->
<g id="node12" class="node">
<title>PeluqueroResenasComponent</title>
<polygon fill="#ffffb3" stroke="black" points="1754.97,-122 1571.03,-122 1571.03,-86 1754.97,-86 1754.97,-122"/>
<text text-anchor="middle" x="1663" y="-99.8" font-family="Times,serif" font-size="14.00">PeluqueroResenasComponent</text>
</g>
<!-- PeluqueroResenasComponent&#45;&gt;AppModule -->
<g id="edge12" class="edge">
<title>PeluqueroResenasComponent&#45;&gt;AppModule</title>
<path fill="none" stroke="black" d="M1663,-122.12C1663,-136.78 1663,-155 1663,-155 1663,-155 1893.09,-155 1893.09,-155"/>
<polygon fill="black" stroke="black" points="1893.09,-158.5 1903.09,-155 1893.09,-151.5 1893.09,-158.5"/>
</g>
<!-- PrincipalPeluqueriaComponent -->
<g id="node13" class="node">
<title>PrincipalPeluqueriaComponent</title>
<polygon fill="#ffffb3" stroke="black" points="1552.74,-122 1361.26,-122 1361.26,-86 1552.74,-86 1552.74,-122"/>
<text text-anchor="middle" x="1457" y="-99.8" font-family="Times,serif" font-size="14.00">PrincipalPeluqueriaComponent</text>
</g>
<!-- PrincipalPeluqueriaComponent&#45;&gt;AppModule -->
<g id="edge13" class="edge">
<title>PrincipalPeluqueriaComponent&#45;&gt;AppModule</title>
<path fill="none" stroke="black" d="M1457,-122.01C1457,-138.05 1457,-159 1457,-159 1457,-159 1892.97,-159 1892.97,-159"/>
<polygon fill="black" stroke="black" points="1892.97,-162.5 1902.97,-159 1892.97,-155.5 1892.97,-162.5"/>
</g>
<!-- WinAuntenticaPeluComponent -->
<g id="node14" class="node">
<title>WinAuntenticaPeluComponent</title>
<polygon fill="#ffffb3" stroke="black" points="1342.75,-122 1151.25,-122 1151.25,-86 1342.75,-86 1342.75,-122"/>
<text text-anchor="middle" x="1247" y="-99.8" font-family="Times,serif" font-size="14.00">WinAuntenticaPeluComponent</text>
</g>
<!-- WinAuntenticaPeluComponent&#45;&gt;AppModule -->
<g id="edge14" class="edge">
<title>WinAuntenticaPeluComponent&#45;&gt;AppModule</title>
<path fill="none" stroke="black" d="M1247,-122.03C1247,-139.06 1247,-162 1247,-162 1247,-162 1893.17,-162 1893.17,-162"/>
<polygon fill="black" stroke="black" points="1893.17,-165.5 1903.17,-162 1893.17,-158.5 1893.17,-165.5"/>
</g>
<!-- WinOpcionInsertarComponent -->
<g id="node15" class="node">
<title>WinOpcionInsertarComponent</title>
<polygon fill="#ffffb3" stroke="black" points="1132.9,-122 943.1,-122 943.1,-86 1132.9,-86 1132.9,-122"/>
<text text-anchor="middle" x="1038" y="-99.8" font-family="Times,serif" font-size="14.00">WinOpcionInsertarComponent</text>
</g>
<!-- WinOpcionInsertarComponent&#45;&gt;AppModule -->
<g id="edge15" class="edge">
<title>WinOpcionInsertarComponent&#45;&gt;AppModule</title>
<path fill="none" stroke="black" d="M1038,-122.27C1038,-140.56 1038,-166 1038,-166 1038,-166 1893.07,-166 1893.07,-166"/>
<polygon fill="black" stroke="black" points="1893.07,-169.5 1903.07,-166 1893.07,-162.5 1893.07,-169.5"/>
</g>
<!-- WinPeluqueriaComponent -->
<g id="node16" class="node">
<title>WinPeluqueriaComponent</title>
<polygon fill="#ffffb3" stroke="black" points="925.81,-122 760.19,-122 760.19,-86 925.81,-86 925.81,-122"/>
<text text-anchor="middle" x="843" y="-99.8" font-family="Times,serif" font-size="14.00">WinPeluqueriaComponent</text>
</g>
<!-- WinPeluqueriaComponent&#45;&gt;AppModule -->
<g id="edge16" class="edge">
<title>WinPeluqueriaComponent&#45;&gt;AppModule</title>
<path fill="none" stroke="black" d="M843,-122.11C843,-141.34 843,-169 843,-169 843,-169 1893.15,-169 1893.15,-169"/>
<polygon fill="black" stroke="black" points="1893.15,-172.5 1903.15,-169 1893.15,-165.5 1893.15,-172.5"/>
</g>
<!-- WinPeluqueroComponent -->
<g id="node17" class="node">
<title>WinPeluqueroComponent</title>
<polygon fill="#ffffb3" stroke="black" points="742.2,-122 579.8,-122 579.8,-86 742.2,-86 742.2,-122"/>
<text text-anchor="middle" x="661" y="-99.8" font-family="Times,serif" font-size="14.00">WinPeluqueroComponent</text>
</g>
<!-- WinPeluqueroComponent&#45;&gt;AppModule -->
<g id="edge17" class="edge">
<title>WinPeluqueroComponent&#45;&gt;AppModule</title>
<path fill="none" stroke="black" d="M661,-122.13C661,-142.57 661,-173 661,-173 661,-173 1893.01,-173 1893.01,-173"/>
<polygon fill="black" stroke="black" points="1893.01,-176.5 1903.01,-173 1893.01,-169.5 1893.01,-176.5"/>
</g>
<!-- WinSubirFotoComponent -->
<g id="node18" class="node">
<title>WinSubirFotoComponent</title>
<polygon fill="#ffffb3" stroke="black" points="561.95,-122 400.05,-122 400.05,-86 561.95,-86 561.95,-122"/>
<text text-anchor="middle" x="481" y="-99.8" font-family="Times,serif" font-size="14.00">WinSubirFotoComponent</text>
</g>
<!-- WinSubirFotoComponent&#45;&gt;AppModule -->
<g id="edge18" class="edge">
<title>WinSubirFotoComponent&#45;&gt;AppModule</title>
<path fill="none" stroke="black" d="M481,-122.04C481,-143.66 481,-177 481,-177 481,-177 1893.15,-177 1893.15,-177"/>
<polygon fill="black" stroke="black" points="1893.15,-180.5 1903.15,-177 1893.15,-173.5 1893.15,-180.5"/>
</g>
<!-- AppComponent  -->
<g id="node21" class="node">
<title>AppComponent </title>
<polygon fill="#80b1d3" stroke="black" points="1999.44,-252 1890.56,-252 1890.56,-216 1999.44,-216 1999.44,-252"/>
<text text-anchor="middle" x="1945" y="-229.8" font-family="Times,serif" font-size="14.00">AppComponent </text>
</g>
<!-- AppModule&#45;&gt;AppComponent  -->
<g id="edge20" class="edge">
<title>AppModule&#45;&gt;AppComponent </title>
<path fill="none" stroke="black" stroke-dasharray="1,5" d="M1945,-187.11C1945,-187.11 1945,-205.99 1945,-205.99"/>
<polygon fill="black" stroke="black" points="1941.5,-205.99 1945,-215.99 1948.5,-205.99 1941.5,-205.99"/>
</g>
<!-- AppRoutingModule -->
<g id="node20" class="node">
<title>AppRoutingModule</title>
<polygon fill="#8dd3c7" stroke="black" points="376.27,-122 373.27,-126 352.27,-126 349.27,-122 247.73,-122 247.73,-86 376.27,-86 376.27,-122"/>
<text text-anchor="middle" x="312" y="-99.8" font-family="Times,serif" font-size="14.00">AppRoutingModule</text>
</g>
<!-- AppRoutingModule&#45;&gt;AppModule -->
<g id="edge19" class="edge">
<title>AppRoutingModule&#45;&gt;AppModule</title>
<path fill="none" stroke="black" d="M312,-122.01C312,-144.49 312,-180 312,-180 312,-180 1892.99,-180 1892.99,-180"/>
<polygon fill="black" stroke="black" points="1892.99,-183.5 1902.99,-180 1892.99,-176.5 1892.99,-183.5"/>
</g>
<!-- HttpInterceptorService -->
<g id="node22" class="node">
<title>HttpInterceptorService</title>
<ellipse fill="#fdb462" stroke="black" cx="124" cy="-104" rx="99.53" ry="18"/>
<text text-anchor="middle" x="124" y="-99.8" font-family="Times,serif" font-size="14.00">HttpInterceptorService</text>
</g>
<!-- HttpInterceptorService&#45;&gt;AppModule -->
<g id="edge21" class="edge">
<title>HttpInterceptorService&#45;&gt;AppModule</title>
<path fill="none" stroke="black" d="M124,-122.15C124,-145.76 124,-184 124,-184 124,-184 1893.11,-184 1893.11,-184"/>
<polygon fill="black" stroke="black" points="1893.11,-187.5 1903.11,-184 1893.11,-180.5 1893.11,-187.5"/>
</g>
</g>
</svg>
